<?xml version="1.0" encoding="UTF-8"?>
<!DOCTYPE svg PUBLIC "-//W3C//DTD SVG 1.1//EN" "http://www.w3.org/Graphics/SVG/1.1/DTD/svg11.dtd">
<!-- Creator: CorelDRAW -->
<svg xmlns="http://www.w3.org/2000/svg" xml:space="preserve" width="2697px" height="2697px" version="1.1" style="shape-rendering:geometricPrecision; text-rendering:geometricPrecision; image-rendering:optimizeQuality; fill-rule:evenodd; clip-rule:evenodd"
viewBox="0 0 2696.87 2696.87"
 xmlns:xlink="http://www.w3.org/1999/xlink"
 xmlns:xodm="http://www.corel.com/coreldraw/odm/2003">
 <defs>
  <style type="text/css">
   <![CDATA[
    .fil1 {fill:white}
    .fil0 {fill:url(#id0)}
   ]]>
  </style>
  <linearGradient id="id0" gradientUnits="userSpaceOnUse" x1="1414.9" y1="2570.7" x2="1414.92" y2="167.15">
   <stop offset="0" style="stop-opacity:1; stop-color:#419644"/>
   <stop offset="1" style="stop-opacity:1; stop-color:#96CF5F"/>
  </linearGradient>
 </defs>
 <g id="Слой_x0020_1">
  <metadata id="CorelCorpID_0Corel-Layer"/>
  <circle class="fil0" cx="1348.44" cy="1348.44" r="1348.47"/>
  <g id="_1959853790464">
   <path class="fil1" d="M1395.13 554.66c12.08,-27.77 -6.2,-54.41 -22.62,-62.27 -19.32,-9.25 -59.87,-5.42 -84.1,-5.42 -175.91,0 -290.46,-4.63 -452.38,93.73 -359.01,218.09 -401.88,695.22 -121.35,974.99 218.12,217.52 439.39,185.4 727.13,185.6 201.71,0.14 235.25,-209.15 116.13,-298.36 -97,-72.64 -352.54,1.07 -493.08,-54.99 -261.04,-104.12 -244.76,-445.16 -18.87,-545.95 91.09,-40.63 228.23,-26.93 337.38,-26.89l452.9 0.01c113.95,0.51 78,-74.67 63.81,-86.86 -18.48,-15.88 -50.86,-12.08 -78.42,-12.08 -121.75,0.03 -243.5,0 -365.24,0 -280.27,0 -431.22,-30.59 -587.98,141.69 -203.26,223.37 -67.07,612.52 257.93,648.45 68.53,7.58 320.17,-7.52 357.26,6.73 49.83,19.14 59.9,83.6 16.9,115.69 -30.94,23.09 -124.76,13.46 -168.29,13.46 -120.88,0 -223.52,8.27 -335.85,-28.43 -170.29,-55.64 -307.04,-197.81 -351.22,-378.79 -71.88,-294.43 127.68,-592.68 426.49,-641.95 57.11,-9.41 116.9,-7.12 176.58,-7.13 69.94,-0.01 127.9,12.44 146.89,-31.23z"/>
   <path class="fil1" d="M2165.31 1562.65c-1.07,-28.19 -3.46,-55.55 -8.13,-83.18 -8.44,-49.96 -22.44,-97.36 -41.5,-141.38 -18.81,-43.48 -40.46,-83.49 -65.33,-117.26 -79.35,-107.75 -176.31,-187.62 -314.52,-233.41 -116.32,-38.54 -205.59,-30.97 -330.54,-31.48 -127.85,-0.53 -235.12,-19.31 -300.23,65.54 -71.5,93.16 -23.79,202.36 52.07,245.13 48.25,27.2 104.66,20.23 164.15,20.23 60.89,0 121.79,-0.02 182.68,-0.02 369.43,-0.01 428.18,465.47 128.3,575.86 -81.68,30.06 -250.03,18.96 -347.5,18.96 -120.47,0 -241.16,0.73 -361.59,0.02 -55.28,-0.32 -132,-14.03 -141.11,40.19 -4.59,27.29 12.38,50.18 32.81,56.18 19.44,5.71 411.34,2.42 451.63,2.42 100.5,0.01 264.73,9.7 353.76,-12.64 276.74,-69.42 394.95,-391.98 226.02,-619.63 -62.23,-83.87 -166.86,-152.72 -295.09,-159.39 -63.99,-3.33 -315.95,12.46 -351.67,-11.94 -45.27,-30.92 -35.5,-97.21 10.32,-116.81 25.59,-10.94 140.09,-5.46 177.18,-5.46 124.55,0 218.39,-7.09 328.68,33.44 160.83,59.09 299.7,198.96 339.52,387.38 62.64,296.38 -140.58,586.43 -442.54,630.26 -56.16,8.16 -120.16,5.22 -178.18,5.22 -52.61,0 -129.67,-14.09 -135.28,43.8 -6.57,67.8 73.68,55.05 127.98,55.05 58.88,0 120.6,2.31 178.05,-4.86 191.1,-23.86 349.7,-126.12 452.72,-274.43 83.97,-120.89 104.34,-226.38 107.34,-367.79z"/>
  </g>
 </g>
</svg>
