<?xml version="1.0" encoding="UTF-8"?>
<!DOCTYPE svg PUBLIC "-//W3C//DTD SVG 1.1//EN" "http://www.w3.org/Graphics/SVG/1.1/DTD/svg11.dtd">
<!-- Creator: CorelDRAW -->
<svg xmlns="http://www.w3.org/2000/svg" xml:space="preserve" width="100px" height="106px" version="1.1" style="shape-rendering:geometricPrecision; text-rendering:geometricPrecision; image-rendering:optimizeQuality; fill-rule:evenodd; clip-rule:evenodd"
viewBox="0 0 99.99 105.55"
 xmlns:xlink="http://www.w3.org/1999/xlink"
 xmlns:xodm="http://www.corel.com/coreldraw/odm/2003">
 <defs>
  <style type="text/css">
   <![CDATA[
    .fil0 {fill:white}
   ]]>
  </style>
 </defs>
 <g id="Слой_x0020_1">
  <metadata id="CorelCorpID_0Corel-Layer"/>
  <g id="_1482283486832">
   <path class="fil0" d="M52.85 4.19c0.74,-1.7 -0.38,-3.33 -1.38,-3.81 -1.18,-0.57 -3.66,-0.33 -5.15,-0.33 -10.76,0 -17.78,-0.29 -27.69,5.73 -21.97,13.35 -24.59,42.56 -7.42,59.68 13.35,13.31 26.89,11.35 44.5,11.36 12.35,0.01 14.4,-12.8 7.11,-18.26 -5.94,-4.45 -21.58,0.06 -30.18,-3.37 -15.98,-6.37 -14.98,-27.24 -1.15,-33.41 5.57,-2.49 13.96,-1.65 20.64,-1.65l27.72 0c6.98,0.03 4.78,-4.57 3.91,-5.31 -1.13,-0.98 -3.11,-0.74 -4.8,-0.74 -7.45,0 -14.9,0 -22.35,0 -17.16,0 -26.4,-1.88 -35.99,8.67 -12.44,13.67 -4.11,37.49 15.78,39.69 4.2,0.46 19.6,-0.46 21.87,0.41 3.05,1.17 3.67,5.12 1.03,7.08 -1.89,1.41 -7.63,0.82 -10.3,0.82 -7.39,0 -13.68,0.51 -20.55,-1.74 -10.42,-3.4 -18.79,-12.1 -21.5,-23.18 -4.4,-18.02 7.82,-36.28 26.11,-39.29 3.49,-0.58 7.15,-0.44 10.8,-0.44 4.28,0 7.83,0.76 8.99,-1.91z"/>
   <path class="fil0" d="M99.99 65.89c-0.06,-1.73 -0.21,-3.4 -0.49,-5.1 -0.52,-3.05 -1.38,-5.95 -2.54,-8.65 -1.16,-2.66 -2.48,-5.11 -4,-7.18 -4.86,-6.59 -10.79,-11.48 -19.25,-14.28 -7.12,-2.36 -12.59,-1.9 -20.23,-1.93 -7.83,-0.03 -14.39,-1.18 -18.38,4.01 -4.38,5.71 -1.46,12.39 3.19,15.01 2.95,1.66 6.4,1.23 10.04,1.23 3.73,0 7.46,0 11.18,0 22.62,0 26.21,28.49 7.86,35.25 -5,1.84 -15.31,1.16 -21.27,1.16 -7.37,0 -14.76,0.04 -22.13,0 -3.39,-0.02 -8.08,-0.86 -8.64,2.46 -0.28,1.67 0.76,3.07 2.01,3.44 1.19,0.35 25.18,0.15 27.64,0.15 6.15,0 16.2,0.59 21.65,-0.78 16.94,-4.25 24.18,-23.99 13.84,-37.92 -3.81,-5.13 -10.22,-9.35 -18.06,-9.76 -3.92,-0.2 -19.34,0.77 -21.53,-0.73 -2.77,-1.89 -2.17,-5.95 0.63,-7.15 1.57,-0.67 8.58,-0.33 10.85,-0.33 7.62,0 13.36,-0.44 20.11,2.05 9.85,3.61 18.35,12.17 20.78,23.71 3.84,18.14 -8.6,35.89 -27.08,38.57 -3.44,0.5 -7.36,0.32 -10.91,0.32 -3.22,0 -7.93,-0.86 -8.28,2.68 -0.4,4.15 4.51,3.37 7.84,3.37 3.6,0 7.38,0.14 10.89,-0.3 11.7,-1.46 21.41,-7.72 27.71,-16.79 5.14,-7.4 6.39,-13.86 6.57,-22.51z"/>
  </g>
 </g>
</svg>
