<?xml version="1.0" encoding="UTF-8"?>
<!DOCTYPE svg PUBLIC "-//W3C//DTD SVG 1.1//EN" "http://www.w3.org/Graphics/SVG/1.1/DTD/svg11.dtd">
<!-- Creator: CorelDRAW -->
<svg xmlns="http://www.w3.org/2000/svg" xml:space="preserve" width="100px" height="100px" version="1.1" style="shape-rendering:geometricPrecision; text-rendering:geometricPrecision; image-rendering:optimizeQuality; fill-rule:evenodd; clip-rule:evenodd"
viewBox="0 0 24.53 24.53"
 xmlns:xlink="http://www.w3.org/1999/xlink"
 xmlns:xodm="http://www.corel.com/coreldraw/odm/2003">
 <defs>
  <style type="text/css">
   <![CDATA[
    .fil0 {fill:black}
    .fil1 {fill:white}
   ]]>
  </style>
 </defs>
 <g id="Слой_x0020_1">
  <metadata id="CorelCorpID_0Corel-Layer"/>
  <circle class="fil0" cx="12.26" cy="12.26" r="12.26"/>
  <g id="_2700809186928">
   <path class="fil1" d="M12.69 5.04c0.11,-0.25 -0.06,-0.49 -0.21,-0.56 -0.17,-0.09 -0.54,-0.05 -0.76,-0.05 -1.6,0 -2.64,-0.04 -4.12,0.85 -3.26,1.98 -3.65,6.32 -1.1,8.87 1.98,1.98 4,1.68 6.61,1.69 1.84,0 2.14,-1.91 1.06,-2.72 -0.88,-0.66 -3.21,0.01 -4.49,-0.5 -2.37,-0.94 -2.22,-4.05 -0.17,-4.96 0.83,-0.37 2.08,-0.25 3.07,-0.25l4.12 0c1.04,0.01 0.71,-0.68 0.58,-0.79 -0.17,-0.14 -0.46,-0.11 -0.71,-0.11 -1.11,0 -2.22,0 -3.32,0 -2.55,0 -3.93,-0.27 -5.35,1.29 -1.85,2.03 -0.61,5.57 2.34,5.9 0.63,0.07 2.92,-0.07 3.25,0.06 0.46,0.17 0.55,0.76 0.16,1.05 -0.28,0.21 -1.14,0.12 -1.53,0.12 -1.1,0 -2.04,0.08 -3.06,-0.25 -1.55,-0.51 -2.79,-1.8 -3.19,-3.45 -0.66,-2.68 1.16,-5.39 3.88,-5.84 0.52,-0.08 1.06,-0.06 1.6,-0.06 0.64,0 1.17,0.11 1.34,-0.29z"/>
   <path class="fil1" d="M19.69 14.21c-0.01,-0.25 -0.03,-0.5 -0.07,-0.76 -0.08,-0.45 -0.21,-0.88 -0.38,-1.28 -0.17,-0.4 -0.37,-0.76 -0.59,-1.07 -0.72,-0.98 -1.61,-1.7 -2.86,-2.12 -1.06,-0.35 -1.87,-0.28 -3.01,-0.29 -1.16,0 -2.14,-0.17 -2.73,0.6 -0.65,0.85 -0.22,1.84 0.47,2.23 0.44,0.25 0.96,0.18 1.5,0.18 0.55,0 1.1,0 1.66,0 3.36,0 3.89,4.24 1.16,5.24 -0.74,0.27 -2.27,0.17 -3.16,0.17 -1.09,0 -2.19,0.01 -3.28,0 -0.51,0 -1.2,-0.13 -1.29,0.37 -0.04,0.25 0.12,0.45 0.3,0.51 0.18,0.05 3.74,0.02 4.11,0.02 0.91,0 2.41,0.09 3.22,-0.11 2.51,-0.64 3.59,-3.57 2.05,-5.64 -0.57,-0.76 -1.52,-1.39 -2.68,-1.45 -0.58,-0.03 -2.88,0.11 -3.2,-0.11 -0.41,-0.28 -0.32,-0.88 0.09,-1.06 0.24,-0.1 1.28,-0.05 1.61,-0.05 1.14,0 1.99,-0.06 2.99,0.3 1.47,0.54 2.73,1.81 3.09,3.53 0.57,2.69 -1.28,5.33 -4.02,5.73 -0.51,0.07 -1.1,0.05 -1.62,0.05 -0.48,0 -1.18,-0.13 -1.23,0.4 -0.06,0.61 0.67,0.5 1.16,0.5 0.54,0 1.1,0.02 1.62,-0.05 1.74,-0.22 3.18,-1.15 4.12,-2.49 0.76,-1.1 0.94,-2.06 0.97,-3.35z"/>
  </g>
 </g>
</svg>
